ffmpeg started on 2025-06-07 at 15:11:45
Report written to "D:\Convert\FFMetrics\reports\ssim_report-6.txt"
Log level: 32
Command line:
ffmpeg -hide_banner -nostdin -i "G:\\\xc0\xed\xe8\xec\xe5\\\xce\xed\xe3\xee\xe8\xed\xe3\xe8\\!_36_\xce\xf1\xe5\xed\xfc_2024\\DreamCast\\\xd1\xee\xe1\xeb\xe0\xe7\xed 2,5-\xec\xe5\xf0\xed\xee\xe3\xee \xe8\xe7\xec\xe5\xf0\xe5\xed\xe8\xff\\[DC] 2-5 Jigen no Ririsa - 08_Telegram_HEVC.mkv" -i "G:\\\xc0\xed\xe8\xec\xe5\\\xce\xed\xe3\xee\xe8\xed\xe3\xe8\\!_36_\xce\xf1\xe5\xed\xfc_2024\\DreamCast\\\xd1\xee\xe1\xeb\xe0\xe7\xed 2,5-\xec\xe5\xf0\xed\xee\xe3\xee \xe8\xe7\xec\xe5\xf0\xe5\xed\xe8\xff\\[DC] 2-5 Jigen no Ririsa - 08_Telegram.mp4" -lavfi "[0:v]settb=AVTB,setpts=PTS-STARTPTS,format=pix_fmts=yuv420p10,fps=24000/1001,scale=1920:1080:flags=bicubic[main];[1:v]settb=AVTB,setpts=PTS-STARTPTS,format=pix_fmts=yuv420p,fps=24000/1001,scale=1920:1080:flags=bicubic[ref];[main][ref]ssim=eof_action=endall:stats_file='D\\:/Convert/FFMetrics/logs/ssim_logfile-6.txt'" -f null -
Input #0, matroska,webm, from 'G:\Аниме\Онгоинги\!_36_Осень_2024\DreamCast\Соблазн 2,5-мерного измерения\[DC] 2-5 Jigen no Ririsa - 08_Telegram_HEVC.mkv':
  Metadata:
    COMPATIBLE_BRANDS: isomiso2avc1mp41
    MAJOR_BRAND     : isom
    MINOR_VERSION   : 512
    ENCODER         : Lavf61.7.100
  Duration: 00:24:07.08, start: -0.021000, bitrate: 1108 kb/s
  Stream #0:0: Video: hevc (Main 10), yuv420p10le(tv, bt709, progressive), 1920x1080 [SAR 1:1 DAR 16:9], 23.98 fps, 23.98 tbr, 1k tbn (default)
      Metadata:
        HANDLER_NAME    : VideoHandler
        VENDOR_ID       : [0][0][0][0]
        ENCODER         : Lavc61.19.100 libx265
        BPS             : 910690
        DURATION        : 00:24:06.653708333
        NUMBER_OF_FRAMES: 34685
        NUMBER_OF_BYTES : 164681625
        _STATISTICS_WRITING_APP: mkvpropedit v66.0.0 ('Josie') 64-bit
        _STATISTICS_WRITING_DATE_UTC: 2025-06-04 10:47:45
        _STATISTICS_TAGS: BPS DURATION NUMBER_OF_FRAMES NUMBER_OF_BYTES
  Stream #0:1: Audio: aac (LC), 48000 Hz, stereo, fltp (default)
      Metadata:
        HANDLER_NAME    : SoundHandler
        VENDOR_ID       : [0][0][0][0]
        ENCODER         : Lavc61.19.100 aac
        BPS             : 193601
        DURATION        : 00:24:07.082000000
        NUMBER_OF_FRAMES: 67833
        NUMBER_OF_BYTES : 35019627
        _STATISTICS_WRITING_APP: mkvpropedit v66.0.0 ('Josie') 64-bit
        _STATISTICS_WRITING_DATE_UTC: 2025-06-04 10:47:45
        _STATISTICS_TAGS: BPS DURATION NUMBER_OF_FRAMES NUMBER_OF_BYTES
Input #1, mov,mp4,m4a,3gp,3g2,mj2, from 'G:\Аниме\Онгоинги\!_36_Осень_2024\DreamCast\Соблазн 2,5-мерного измерения\[DC] 2-5 Jigen no Ririsa - 08_Telegram.mp4':
  Metadata:
    major_brand     : isom
    minor_version   : 512
    compatible_brands: isomiso2avc1mp41
    encoder         : Lavf60.16.100
  Duration: 00:24:07.06, start: 0.000000, bitrate: 3913 kb/s
  Stream #1:0[0x1](und): Video: h264 (High) (avc1 / 0x31637661), yuv420p(tv, bt709, progressive), 1920x1080 [SAR 1:1 DAR 16:9], 3766 kb/s, 23.98 fps, 23.98 tbr, 24k tbn (default)
      Metadata:
        handler_name    : VideoHandler
        vendor_id       : [0][0][0][0]
        encoder         : Lavc60.31.102 h264_qsv
  Stream #1:1[0x2](und): Audio: aac (HE-AACv2) (mp4a / 0x6134706D), 48000 Hz, stereo, fltp, 144 kb/s (default)
      Metadata:
        handler_name    : SoundHandler
        vendor_id       : [0][0][0][0]
Stream mapping:
  Stream #0:0 (hevc) -> settb:default
  Stream #1:0 (h264) -> settb:default
  ssim:default -> Stream #0:0 (wrapped_avframe)
  Stream #0:1 -> #0:1 (aac (native) -> pcm_s16le (native))
Output #0, null, to 'pipe:':
  Metadata:
    COMPATIBLE_BRANDS: isomiso2avc1mp41
    MAJOR_BRAND     : isom
    MINOR_VERSION   : 512
    encoder         : Lavf61.7.100
  Stream #0:0: Video: wrapped_avframe, yuv420p10le(tv, bt709, progressive), 1920x1080 [SAR 1:1 DAR 16:9], q=2-31, 200 kb/s, 23.98 fps, 23.98 tbn
      Metadata:
        encoder         : Lavc61.19.100 wrapped_avframe
  Stream #0:1: Audio: pcm_s16le, 48000 Hz, stereo, s16, 1536 kb/s (default)
      Metadata:
        HANDLER_NAME    : SoundHandler
        VENDOR_ID       : [0][0][0][0]
        _STATISTICS_TAGS: BPS DURATION NUMBER_OF_FRAMES NUMBER_OF_BYTES
        BPS             : 193601
        DURATION        : 00:24:07.082000000
        NUMBER_OF_FRAMES: 67833
        NUMBER_OF_BYTES : 35019627
        _STATISTICS_WRITING_APP: mkvpropedit v66.0.0 ('Josie') 64-bit
        _STATISTICS_WRITING_DATE_UTC: 2025-06-04 10:47:45
        encoder         : Lavc61.19.100 pcm_s16le
frame=  159 fps=0.0 q=-0.0 size=N/A time=00:00:06.63 bitrate=N/A speed=12.8x    frame=  401 fps=386 q=-0.0 size=N/A time=00:00:16.72 bitrate=N/A speed=16.1x    frame=  627 fps=405 q=-0.0 size=N/A time=00:00:26.15 bitrate=N/A speed=16.9x    frame=  851 fps=410 q=-0.0 size=N/A time=00:00:35.49 bitrate=N/A speed=17.1x    frame= 1024 fps=397 q=-0.0 size=N/A time=00:00:42.70 bitrate=N/A speed=16.5x    frame= 1213 fps=391 q=-0.0 size=N/A time=00:00:50.59 bitrate=N/A speed=16.3x    frame= 1420 fps=393 q=-0.0 size=N/A time=00:00:59.22 bitrate=N/A speed=16.4x    frame= 1624 fps=393 q=-0.0 size=N/A time=00:01:07.73 bitrate=N/A speed=16.4x    frame= 1790 fps=386 q=-0.0 size=N/A time=00:01:14.65 bitrate=N/A speed=16.1x    frame= 2002 fps=388 q=-0.0 size=N/A time=00:01:23.50 bitrate=N/A speed=16.2x    frame= 2184 fps=385 q=-0.0 size=N/A time=00:01:31.09 bitrate=N/A speed=  16x    frame= 2361 fps=381 q=-0.0 size=N/A time=00:01:38.47 bitrate=N/A speed=15.9x    frame= 2557 fps=381 q=-0.0 size=N/A time=00:01:46.64 bitrate=N/A speed=15.9x    frame= 2747 fps=380 q=-0.0 size=N/A time=00:01:54.57 bitrate=N/A speed=15.9x    frame= 2930 fps=379 q=-0.0 size=N/A time=00:02:02.20 bitrate=N/A speed=15.8x    frame= 3162 fps=383 q=-0.0 size=N/A time=00:02:11.88 bitrate=N/A speed=  16x    frame= 3418 fps=390 q=-0.0 size=N/A time=00:02:22.55 bitrate=N/A speed=16.3x    frame= 3681 fps=396 q=-0.0 size=N/A time=00:02:33.52 bitrate=N/A speed=16.5x    frame= 3951 fps=403 q=-0.0 size=N/A time=00:02:44.78 bitrate=N/A speed=16.8x    frame= 4199 fps=407 q=-0.0 size=N/A time=00:02:55.13 bitrate=N/A speed=  17x    frame= 4443 fps=410 q=-0.0 size=N/A time=00:03:05.31 bitrate=N/A speed=17.1x    frame= 4691 fps=413 q=-0.0 size=N/A time=00:03:15.65 bitrate=N/A speed=17.2x    frame= 4931 fps=415 q=-0.0 size=N/A time=00:03:25.66 bitrate=N/A speed=17.3x    frame= 5125 fps=414 q=-0.0 size=N/A time=00:03:33.75 bitrate=N/A speed=17.3x    frame= 5370 fps=417 q=-0.0 size=N/A time=00:03:43.97 bitrate=N/A speed=17.4x    frame= 5600 fps=418 q=-0.0 size=N/A time=00:03:53.56 bitrate=N/A speed=17.4x    frame= 5840 fps=419 q=-0.0 size=N/A time=00:04:03.57 bitrate=N/A speed=17.5x    frame= 6092 fps=422 q=-0.0 size=N/A time=00:04:14.08 bitrate=N/A speed=17.6x    frame= 6353 fps=425 q=-0.0 size=N/A time=00:04:24.97 bitrate=N/A speed=17.7x    frame= 6627 fps=428 q=-0.0 size=N/A time=00:04:36.40 bitrate=N/A speed=17.9x    frame= 6874 fps=430 q=-0.0 size=N/A time=00:04:46.70 bitrate=N/A speed=17.9x    frame= 7098 fps=430 q=-0.0 size=N/A time=00:04:56.04 bitrate=N/A speed=17.9x    frame= 7361 fps=432 q=-0.0 size=N/A time=00:05:07.01 bitrate=N/A speed=  18x    frame= 7619 fps=435 q=-0.0 size=N/A time=00:05:17.77 bitrate=N/A speed=18.1x    frame= 7888 fps=437 q=-0.0 size=N/A time=00:05:28.99 bitrate=N/A speed=18.2x    frame= 8114 fps=437 q=-0.0 size=N/A time=00:05:38.42 bitrate=N/A speed=18.2x    frame= 8349 fps=437 q=-0.0 size=N/A time=00:05:48.22 bitrate=N/A speed=18.2x    frame= 8597 fps=439 q=-0.0 size=N/A time=00:05:58.56 bitrate=N/A speed=18.3x    frame= 8833 fps=439 q=-0.0 size=N/A time=00:06:08.40 bitrate=N/A speed=18.3x    frame= 9099 fps=441 q=-0.0 size=N/A time=00:06:19.50 bitrate=N/A speed=18.4x    frame= 9367 fps=443 q=-0.0 size=N/A time=00:06:30.68 bitrate=N/A speed=18.5x    frame= 9606 fps=443 q=-0.0 size=N/A time=00:06:40.65 bitrate=N/A speed=18.5x    frame= 9863 fps=445 q=-0.0 size=N/A time=00:06:51.36 bitrate=N/A speed=18.6x    frame=10132 fps=446 q=-0.0 size=N/A time=00:07:02.58 bitrate=N/A speed=18.6x    frame=10394 fps=448 q=-0.0 size=N/A time=00:07:13.51 bitrate=N/A speed=18.7x    frame=10619 fps=448 q=-0.0 size=N/A time=00:07:22.90 bitrate=N/A speed=18.7x    frame=10859 fps=448 q=-0.0 size=N/A time=00:07:32.91 bitrate=N/A speed=18.7x    frame=11096 fps=448 q=-0.0 size=N/A time=00:07:42.79 bitrate=N/A speed=18.7x    frame=11335 fps=449 q=-0.0 size=N/A time=00:07:52.76 bitrate=N/A speed=18.7x    frame=11577 fps=449 q=-0.0 size=N/A time=00:08:02.85 bitrate=N/A speed=18.7x    frame=11839 fps=450 q=-0.0 size=N/A time=00:08:13.78 bitrate=N/A speed=18.8x    frame=12115 fps=452 q=-0.0 size=N/A time=00:08:25.29 bitrate=N/A speed=18.8x    frame=12371 fps=452 q=-0.0 size=N/A time=00:08:35.97 bitrate=N/A speed=18.9x    frame=12621 fps=453 q=-0.0 size=N/A time=00:08:46.40 bitrate=N/A speed=18.9x    frame=12877 fps=454 q=-0.0 size=N/A time=00:08:57.07 bitrate=N/A speed=18.9x    frame=13126 fps=454 q=-0.0 size=N/A time=00:09:07.46 bitrate=N/A speed=  19x    frame=13372 fps=455 q=-0.0 size=N/A time=00:09:17.72 bitrate=N/A speed=  19x    frame=13624 fps=456 q=-0.0 size=N/A time=00:09:28.23 bitrate=N/A speed=  19x    frame=13897 fps=457 q=-0.0 size=N/A time=00:09:39.62 bitrate=N/A speed=  19x    frame=14155 fps=457 q=-0.0 size=N/A time=00:09:50.38 bitrate=N/A speed=19.1x    frame=14371 fps=457 q=-0.0 size=N/A time=00:09:59.39 bitrate=N/A speed=19.1x    frame=14612 fps=457 q=-0.0 size=N/A time=00:10:09.44 bitrate=N/A speed=19.1x    frame=14880 fps=458 q=-0.0 size=N/A time=00:10:20.62 bitrate=N/A speed=19.1x    frame=15129 fps=458 q=-0.0 size=N/A time=00:10:31.00 bitrate=N/A speed=19.1x    frame=15364 fps=458 q=-0.0 size=N/A time=00:10:40.80 bitrate=N/A speed=19.1x    frame=15638 fps=459 q=-0.0 size=N/A time=00:10:52.23 bitrate=N/A speed=19.2x    frame=15906 fps=460 q=-0.0 size=N/A time=00:11:03.41 bitrate=N/A speed=19.2x    frame=16139 fps=460 q=-0.0 size=N/A time=00:11:13.13 bitrate=N/A speed=19.2x    frame=16379 fps=460 q=-0.0 size=N/A time=00:11:23.14 bitrate=N/A speed=19.2x    frame=16639 fps=461 q=-0.0 size=N/A time=00:11:33.98 bitrate=N/A speed=19.2x    frame=16883 fps=461 q=-0.0 size=N/A time=00:11:44.16 bitrate=N/A speed=19.2x    frame=17147 fps=462 q=-0.0 size=N/A time=00:11:55.17 bitrate=N/A speed=19.2x    frame=17400 fps=462 q=-0.0 size=N/A time=00:12:05.72 bitrate=N/A speed=19.3x    frame=17608 fps=461 q=-0.0 size=N/A time=00:12:14.40 bitrate=N/A speed=19.2x    frame=17787 fps=460 q=-0.0 size=N/A time=00:12:21.86 bitrate=N/A speed=19.2x    frame=17974 fps=458 q=-0.0 size=N/A time=00:12:29.66 bitrate=N/A speed=19.1x    frame=18191 fps=458 q=-0.0 size=N/A time=00:12:38.71 bitrate=N/A speed=19.1x    frame=18404 fps=457 q=-0.0 size=N/A time=00:12:47.60 bitrate=N/A speed=19.1x    frame=18626 fps=457 q=-0.0 size=N/A time=00:12:56.90 bitrate=N/A speed=19.1x    frame=18882 fps=457 q=-0.0 size=N/A time=00:13:07.53 bitrate=N/A speed=19.1x    frame=19160 fps=458 q=-0.0 size=N/A time=00:13:19.13 bitrate=N/A speed=19.1x    frame=19382 fps=458 q=-0.0 size=N/A time=00:13:28.39 bitrate=N/A speed=19.1x    frame=19593 fps=457 q=-0.0 size=N/A time=00:13:37.19 bitrate=N/A speed=19.1x    frame=19864 fps=458 q=-0.0 size=N/A time=00:13:48.49 bitrate=N/A speed=19.1x    frame=20120 fps=459 q=-0.0 size=N/A time=00:13:59.17 bitrate=N/A speed=19.1x    frame=20340 fps=458 q=-0.0 size=N/A time=00:14:08.34 bitrate=N/A speed=19.1x    frame=20559 fps=458 q=-0.0 size=N/A time=00:14:17.48 bitrate=N/A speed=19.1x    frame=20784 fps=458 q=-0.0 size=N/A time=00:14:26.86 bitrate=N/A speed=19.1x    frame=21026 fps=458 q=-0.0 size=N/A time=00:14:36.95 bitrate=N/A speed=19.1x    frame=21264 fps=458 q=-0.0 size=N/A time=00:14:46.88 bitrate=N/A speed=19.1x    frame=21523 fps=458 q=-0.0 size=N/A time=00:14:57.68 bitrate=N/A speed=19.1x    frame=21786 fps=459 q=-0.0 size=N/A time=00:15:08.65 bitrate=N/A speed=19.1x    frame=22026 fps=459 q=-0.0 size=N/A time=00:15:18.66 bitrate=N/A speed=19.1x    frame=22254 fps=459 q=-0.0 size=N/A time=00:15:28.17 bitrate=N/A speed=19.1x    frame=22471 fps=458 q=-0.0 size=N/A time=00:15:37.22 bitrate=N/A speed=19.1x    frame=22696 fps=458 q=-0.0 size=N/A time=00:15:46.61 bitrate=N/A speed=19.1x    frame=22936 fps=458 q=-0.0 size=N/A time=00:15:56.62 bitrate=N/A speed=19.1x    frame=23203 fps=459 q=-0.0 size=N/A time=00:16:07.75 bitrate=N/A speed=19.1x    frame=23458 fps=459 q=-0.0 size=N/A time=00:16:18.39 bitrate=N/A speed=19.2x    frame=23732 fps=460 q=-0.0 size=N/A time=00:16:29.82 bitrate=N/A speed=19.2x    frame=23993 fps=460 q=-0.0 size=N/A time=00:16:40.70 bitrate=N/A speed=19.2x    frame=24236 fps=460 q=-0.0 size=N/A time=00:16:50.84 bitrate=N/A speed=19.2x    frame=24496 fps=461 q=-0.0 size=N/A time=00:17:01.68 bitrate=N/A speed=19.2x    frame=24754 fps=461 q=-0.0 size=N/A time=00:17:12.44 bitrate=N/A speed=19.2x    frame=25003 fps=462 q=-0.0 size=N/A time=00:17:22.83 bitrate=N/A speed=19.2x    frame=25262 fps=462 q=-0.0 size=N/A time=00:17:33.63 bitrate=N/A speed=19.3x    frame=25506 fps=462 q=-0.0 size=N/A time=00:17:43.81 bitrate=N/A speed=19.3x    frame=25760 fps=462 q=-0.0 size=N/A time=00:17:54.40 bitrate=N/A speed=19.3x    frame=26030 fps=463 q=-0.0 size=N/A time=00:18:05.66 bitrate=N/A speed=19.3x    frame=26293 fps=463 q=-0.0 size=N/A time=00:18:16.63 bitrate=N/A speed=19.3x    frame=26547 fps=463 q=-0.0 size=N/A time=00:18:27.23 bitrate=N/A speed=19.3x    frame=26776 fps=463 q=-0.0 size=N/A time=00:18:36.78 bitrate=N/A speed=19.3x    frame=27037 fps=464 q=-0.0 size=N/A time=00:18:47.66 bitrate=N/A speed=19.3x    frame=27311 fps=464 q=-0.0 size=N/A time=00:18:59.09 bitrate=N/A speed=19.4x    frame=27548 fps=464 q=-0.0 size=N/A time=00:19:08.98 bitrate=N/A speed=19.4x    frame=27817 fps=465 q=-0.0 size=N/A time=00:19:20.20 bitrate=N/A speed=19.4x    frame=28070 fps=465 q=-0.0 size=N/A time=00:19:30.75 bitrate=N/A speed=19.4x    frame=28298 fps=465 q=-0.0 size=N/A time=00:19:40.26 bitrate=N/A speed=19.4x    frame=28531 fps=465 q=-0.0 size=N/A time=00:19:49.98 bitrate=N/A speed=19.4x    frame=28746 fps=464 q=-0.0 size=N/A time=00:19:58.94 bitrate=N/A speed=19.4x    frame=28971 fps=464 q=-0.0 size=N/A time=00:20:08.33 bitrate=N/A speed=19.4x    frame=29242 fps=465 q=-0.0 size=N/A time=00:20:19.63 bitrate=N/A speed=19.4x    frame=29489 fps=465 q=-0.0 size=N/A time=00:20:29.93 bitrate=N/A speed=19.4x    frame=29736 fps=465 q=-0.0 size=N/A time=00:20:40.23 bitrate=N/A speed=19.4x    frame=29994 fps=465 q=-0.0 size=N/A time=00:20:50.99 bitrate=N/A speed=19.4x    frame=30267 fps=466 q=-0.0 size=N/A time=00:21:02.38 bitrate=N/A speed=19.4x    frame=30543 fps=466 q=-0.0 size=N/A time=00:21:13.89 bitrate=N/A speed=19.4x    frame=30804 fps=466 q=-0.0 size=N/A time=00:21:24.78 bitrate=N/A speed=19.5x    frame=31052 fps=467 q=-0.0 size=N/A time=00:21:35.12 bitrate=N/A speed=19.5x    frame=31290 fps=467 q=-0.0 size=N/A time=00:21:45.05 bitrate=N/A speed=19.5x    frame=31539 fps=467 q=-0.0 size=N/A time=00:21:55.43 bitrate=N/A speed=19.5x    frame=31741 fps=466 q=-0.0 size=N/A time=00:22:03.86 bitrate=N/A speed=19.4x    frame=31978 fps=466 q=-0.0 size=N/A time=00:22:13.74 bitrate=N/A speed=19.4x    frame=32235 fps=466 q=-0.0 size=N/A time=00:22:24.46 bitrate=N/A speed=19.4x    frame=32470 fps=466 q=-0.0 size=N/A time=00:22:34.26 bitrate=N/A speed=19.4x    frame=32692 fps=466 q=-0.0 size=N/A time=00:22:43.52 bitrate=N/A speed=19.4x    frame=32888 fps=465 q=-0.0 size=N/A time=00:22:51.70 bitrate=N/A speed=19.4x    frame=33063 fps=464 q=-0.0 size=N/A time=00:22:59.00 bitrate=N/A speed=19.4x    frame=33273 fps=464 q=-0.0 size=N/A time=00:23:07.76 bitrate=N/A speed=19.4x    frame=33454 fps=463 q=-0.0 size=N/A time=00:23:15.31 bitrate=N/A speed=19.3x    frame=33634 fps=462 q=-0.0 size=N/A time=00:23:22.81 bitrate=N/A speed=19.3x    frame=33857 fps=462 q=-0.0 size=N/A time=00:23:32.11 bitrate=N/A speed=19.3x    frame=34057 fps=462 q=-0.0 size=N/A time=00:23:40.46 bitrate=N/A speed=19.3x    frame=34240 fps=461 q=-0.0 size=N/A time=00:23:48.09 bitrate=N/A speed=19.2x    frame=34409 fps=460 q=-0.0 size=N/A time=00:23:55.14 bitrate=N/A speed=19.2x    frame=34635 fps=460 q=-0.0 size=N/A time=00:24:04.56 bitrate=N/A speed=19.2x    [Parsed_ssim_10 @ 000002c91574c0c0] SSIM Y:0.994542 (22.629884) U:0.994430 (22.541772) V:0.993898 (22.145501) All:0.994416 (22.530784)
[out#0/null @ 000002c914e147c0] video:14904KiB audio:271332KiB subtitle:0KiB other streams:0KiB global headers:0KiB muxing overhead: unknown
frame=34685 fps=460 q=-0.0 Lsize=N/A time=00:24:06.65 bitrate=N/A speed=19.2x    
